<svg width="30" height="30" viewBox="0 0 30 30" fill="none" xmlns="http://www.w3.org/2000/svg">
<path d="M25.8095 3.34262L16.4404 10.3012L18.173 6.19573L25.8095 3.34262Z" fill="#E2761B" stroke="#E2761B" stroke-linecap="round" stroke-linejoin="round"/>
<path d="M4.18066 3.34262L13.4745 10.3671L11.8266 6.19573L4.18066 3.34262Z" fill="#E4761B" stroke="#E4761B" stroke-linecap="round" stroke-linejoin="round"/>
<path d="M22.4387 19.4726L19.9434 23.2955L25.2823 24.7645L26.8172 19.5573L22.4387 19.4726Z" fill="#E4761B" stroke="#E4761B" stroke-linecap="round" stroke-linejoin="round"/>
<path d="M3.19238 19.5573L4.71781 24.7645L10.0568 23.2955L7.5615 19.4726L3.19238 19.5573Z" fill="#E4761B" stroke="#E4761B" stroke-linecap="round" stroke-linejoin="round"/>
<path d="M9.75534 13.0131L8.26758 15.2636L13.5689 15.499L13.3806 9.80219L9.75534 13.0131Z" fill="#E4761B" stroke="#E4761B" stroke-linecap="round" stroke-linejoin="round"/>
<path d="M20.2361 13.013L16.5638 9.73621L16.4414 15.4989L21.7333 15.2635L20.2361 13.013Z" fill="#E4761B" stroke="#E4761B" stroke-linecap="round" stroke-linejoin="round"/>
<path d="M10.0566 23.2956L13.2393 21.7419L10.4898 19.595L10.0566 23.2956Z" fill="#E4761B" stroke="#E4761B" stroke-linecap="round" stroke-linejoin="round"/>
<path d="M16.752 21.7419L19.944 23.2956L19.5015 19.595L16.752 21.7419Z" fill="#E4761B" stroke="#E4761B" stroke-linecap="round" stroke-linejoin="round"/>
<path d="M19.944 23.2958L16.752 21.7421L17.0062 23.8231L16.9779 24.6988L19.944 23.2958Z" fill="#D7C1B3" stroke="#D7C1B3" stroke-linecap="round" stroke-linejoin="round"/>
<path d="M10.0566 23.2958L13.0227 24.6988L13.0039 23.8231L13.2393 21.7421L10.0566 23.2958Z" fill="#D7C1B3" stroke="#D7C1B3" stroke-linecap="round" stroke-linejoin="round"/>
<path d="M13.0694 18.2201L10.4141 17.4386L12.2879 16.5817L13.0694 18.2201Z" fill="#233447" stroke="#233447" stroke-linecap="round" stroke-linejoin="round"/>
<path d="M16.9209 18.2201L17.7024 16.5817L19.5857 17.4386L16.9209 18.2201Z" fill="#233447" stroke="#233447" stroke-linecap="round" stroke-linejoin="round"/>
<path d="M10.0568 23.2956L10.5088 19.4726L7.56152 19.5573L10.0568 23.2956Z" fill="#CD6116" stroke="#CD6116" stroke-linecap="round" stroke-linejoin="round"/>
<path d="M19.4922 19.4726L19.9442 23.2956L22.4395 19.5573L19.4922 19.4726Z" fill="#CD6116" stroke="#CD6116" stroke-linecap="round" stroke-linejoin="round"/>
<path d="M21.7333 15.2635L16.4414 15.499L16.931 18.2202L17.7126 16.5818L19.5958 17.4387L21.7333 15.2635Z" fill="#CD6116" stroke="#CD6116" stroke-linecap="round" stroke-linejoin="round"/>
<path d="M10.4145 17.4387L12.2977 16.5818L13.0698 18.2202L13.5689 15.499L8.26758 15.2635L10.4145 17.4387Z" fill="#CD6116" stroke="#CD6116" stroke-linecap="round" stroke-linejoin="round"/>
<path d="M8.26758 15.2635L10.4898 19.595L10.4145 17.4387L8.26758 15.2635Z" fill="#E4751F" stroke="#E4751F" stroke-linecap="round" stroke-linejoin="round"/>
<path d="M19.5951 17.4387L19.501 19.595L21.7326 15.2635L19.5951 17.4387Z" fill="#E4751F" stroke="#E4751F" stroke-linecap="round" stroke-linejoin="round"/>
<path d="M13.5694 15.4988L13.0703 18.2201L13.6918 21.431L13.833 17.2032L13.5694 15.4988Z" fill="#E4751F" stroke="#E4751F" stroke-linecap="round" stroke-linejoin="round"/>
<path d="M16.4408 15.4988L16.1865 17.1938L16.2995 21.431L16.9304 18.2201L16.4408 15.4988Z" fill="#E4751F" stroke="#E4751F" stroke-linecap="round" stroke-linejoin="round"/>
<path d="M16.9307 18.2202L16.2998 21.4311L16.7518 21.7419L19.5013 19.595L19.5955 17.4387L16.9307 18.2202Z" fill="#F6851B" stroke="#F6851B" stroke-linecap="round" stroke-linejoin="round"/>
<path d="M10.4141 17.4387L10.4894 19.595L13.2389 21.7419L13.6909 21.4311L13.0694 18.2202L10.4141 17.4387Z" fill="#F6851B" stroke="#F6851B" stroke-linecap="round" stroke-linejoin="round"/>
<path d="M16.9775 24.6987L17.0058 23.823L16.7704 23.6158H13.2205L13.0039 23.823L13.0227 24.6987L10.0566 23.2957L11.0924 24.1431L13.1922 25.6027H16.7986L18.9079 24.1431L19.9436 23.2957L16.9775 24.6987Z" fill="#C0AD9E" stroke="#C0AD9E" stroke-linecap="round" stroke-linejoin="round"/>
<path d="M16.7516 21.7419L16.2996 21.4312H13.6913L13.2393 21.7419L13.0039 23.8229L13.2205 23.6158H16.7704L17.0058 23.8229L16.7516 21.7419Z" fill="#161616" stroke="#161616" stroke-linecap="round" stroke-linejoin="round"/>
<path d="M26.2048 10.7532L27.0052 6.91136L25.8094 3.34262L16.751 10.0658L20.235 13.0131L25.1596 14.4537L26.2519 13.1825L25.7811 12.8436L26.5344 12.1562L25.9506 11.7042L26.7039 11.1298L26.2048 10.7532Z" fill="#763D16" stroke="#763D16" stroke-linecap="round" stroke-linejoin="round"/>
<path d="M2.99414 6.91136L3.79452 10.7532L3.28604 11.1298L4.03934 11.7042L3.46495 12.1562L4.21825 12.8436L3.74744 13.1825L4.8303 14.4537L9.75497 13.0131L13.239 10.0658L4.18058 3.34262L2.99414 6.91136Z" fill="#763D16" stroke="#763D16" stroke-linecap="round" stroke-linejoin="round"/>
<path d="M25.1601 14.4538L20.2354 13.0132L21.7326 15.2636L19.501 19.5951L22.4388 19.5574H26.8174L25.1601 14.4538Z" fill="#F6851B" stroke="#F6851B" stroke-linecap="round" stroke-linejoin="round"/>
<path d="M9.75547 13.0132L4.8308 14.4538L3.19238 19.5574H7.5615L10.4899 19.5951L8.26771 15.2636L9.75547 13.0132Z" fill="#F6851B" stroke="#F6851B" stroke-linecap="round" stroke-linejoin="round"/>
<path d="M16.4411 15.4992L16.7518 10.066L18.1831 6.19595H11.8271L13.2396 10.066L13.5691 15.4992L13.6821 17.2129L13.6916 21.4314H16.2998L16.3187 17.2129L16.4411 15.4992Z" fill="#F6851B" stroke="#F6851B" stroke-linecap="round" stroke-linejoin="round"/>
</svg>
