<svg width="19" height="30" viewBox="0 0 19 30" fill="none" xmlns="http://www.w3.org/2000/svg">
<path d="M0.290039 17.2412L0.962251 16.9292L9.24269 13.054L18.1953 17.2412L14.8343 24.7125L6.61495 25.9605L0.427537 18.7848L0.290039 17.2412Z" fill="#133444"/>
<path d="M16.3476 12.6433C14.8657 10.7221 12.7727 9.49053 10.481 9.16212L10.3283 9.1457C9.61022 9.04718 8.89218 9.04718 8.17413 9.1457L8.02136 9.16212C5.72972 9.49053 3.6367 10.7385 2.15477 12.6433L1.78811 13.3001L1.16173 14.4003L0.703407 15.2049C0.703407 15.2213 0.688129 15.2541 0.672852 15.2705V15.287L1.66589 15.9274L8.00608 19.9668L9.22828 20.7386V11.0997L8.00608 11.6909V10.2459L9.22828 9.65474L10.4505 10.2459L16.6837 13.3001L16.3476 12.6433Z" fill="#C42370"/>
<path d="M18.4706 19.6387C18.4553 22.8078 17.1261 25.7963 14.8498 27.7996C13.979 28.5714 13.0012 29.1461 11.9318 29.5402C11.061 29.8522 10.1596 30 9.24292 30C4.14022 30 0 25.1231 0 19.6387C0 18.8341 0.0916652 18.0295 0.274996 17.2413L9.22765 22.9392L18.1803 17.2413C18.3789 18.0295 18.4858 18.8341 18.4706 19.6387Z" fill="#1C4D6B"/>
<path d="M8.17328 9.14659L9.24271 9.65562L8.02051 10.2632V9.06448L8.17328 9.14659Z" fill="black"/>
<path d="M8.02051 11.7082L9.24271 11.1006V20.7559L8.02051 19.9677V11.7082Z" fill="black"/>
<path d="M9.24316 11.1006V20.7559L17.8292 15.3043L9.24316 11.1006Z" fill="#1D4259"/>
<path d="M9.24316 0V11.1002L17.8292 15.3039L9.24316 0Z" fill="#4B6B9A"/>
<path d="M9.24321 11.0999V20.7387L8.021 19.9669L0.672504 15.3035H0.657227H0.672504C0.672504 15.2871 0.687782 15.2542 0.703059 15.2378L1.77249 13.3166L8.00572 10.2788V11.7074L9.24321 11.0999Z" fill="#343535"/>
<path d="M9.24356 11.1006V20.7559L8.02136 19.9677L0.672852 15.3043L0.688129 15.2878L8.02136 11.7082L9.24356 11.1006Z" fill="#3E5578"/>
<path d="M9.24356 0V11.1002L0.672852 15.3039L9.24356 0Z" fill="#6DB2D8"/>
<path d="M5.77441 29.212C5.89663 29.2777 6.03413 29.327 6.15635 29.3762C6.03413 29.327 5.91191 29.2613 5.77441 29.212Z" fill="#335F8A"/>
<path d="M6.15723 29.3761C6.27945 29.4254 6.41695 29.491 6.55445 29.5239C6.43223 29.491 6.29473 29.4418 6.15723 29.3761Z" fill="#335F8A"/>
<path d="M6.90527 29.639C7.01222 29.6719 7.10388 29.7047 7.21082 29.7211C7.10388 29.7047 6.99694 29.6719 6.90527 29.639Z" fill="#335F8A"/>
<path d="M0.290621 17.2413L9.24327 22.9392C9.12105 23.8095 8.90716 24.6469 8.60161 25.4679C7.88357 27.3399 6.44748 29.3103 3.63641 27.7996C1.36005 25.7963 0.0309026 22.8078 0.015625 19.6387C0.015625 18.8341 0.10729 18.0295 0.290621 17.2413Z" fill="#6DB2D8"/>
<path d="M14.8496 27.7997L14.819 27.8161C14.7732 27.849 14.7274 27.8982 14.6815 27.9311L14.6663 27.9475C14.6204 27.9967 14.5593 28.0296 14.5135 28.0788C14.4524 28.1281 14.4065 28.1774 14.3454 28.2102C14.2843 28.243 14.2232 28.2923 14.1774 28.3416C14.1163 28.3908 14.0704 28.4072 14.0246 28.4565L13.9941 28.4729C13.9329 28.5058 13.8871 28.5386 13.8413 28.5879C13.8413 28.5879 13.826 28.5879 13.826 28.6043C13.7649 28.6371 13.7191 28.67 13.6579 28.7192C13.5968 28.7521 13.5357 28.7849 13.4746 28.8342C13.4135 28.867 13.3524 28.8999 13.2913 28.9327L13.108 29.0312C13.0468 29.0641 12.9857 29.0969 12.9246 29.1298C12.8635 29.1626 12.8024 29.1954 12.7413 29.2283C12.6191 29.294 12.4816 29.3432 12.3594 29.3925C12.2371 29.4417 12.0996 29.491 11.9621 29.5403C11.9163 29.5567 11.8552 29.5731 11.8094 29.5895L11.626 29.6552C11.5191 29.688 11.4274 29.7209 11.3205 29.7373C11.2899 29.7537 11.2441 29.7537 11.1983 29.7701L11.1371 29.7866L10.9691 29.8194C10.908 29.8358 10.8774 29.8358 10.8163 29.8522C10.7705 29.8687 10.7247 29.8687 10.6788 29.8851C10.633 29.8851 10.5719 29.9015 10.526 29.9179C10.4955 29.9179 10.4802 29.9179 10.4497 29.9344L10.3274 29.9508H10.2663C10.2205 29.9508 10.1747 29.9672 10.1441 29.9672C10.0983 29.9672 10.0372 29.9836 9.99133 29.9836C9.9455 29.9836 9.91495 29.9836 9.86911 29.9836C9.82328 29.9836 9.79273 29.9836 9.76217 29.9836C9.71634 29.9836 9.6705 29.9836 9.63995 29.9836C9.60939 29.9836 9.51773 29.9836 9.4719 29.9836H9.10524C9.04412 29.9836 8.98302 29.9836 8.93718 29.9836C8.89135 29.9836 8.84552 29.9836 8.81496 29.9836C8.78441 29.9836 8.73857 29.9836 8.70802 29.9836C8.67746 29.9836 8.63163 29.9836 8.5858 29.9836C8.53997 29.9836 8.47886 29.9672 8.43302 29.9672C8.38719 29.9672 8.34136 29.9672 8.3108 29.9508H8.24969C8.21914 29.9508 8.17331 29.9344 8.12747 29.9344C8.09692 29.9344 8.08164 29.9344 8.05108 29.9179C8.00525 29.9179 7.94414 29.9015 7.89831 29.8851C7.85248 29.8851 7.80664 29.8687 7.76081 29.8522C7.71498 29.8522 7.65387 29.8358 7.60804 29.8194C7.5622 29.803 7.50109 29.7866 7.43998 29.7866L7.37887 29.7701C7.33304 29.7701 7.28721 29.7537 7.25665 29.7537C7.14971 29.7209 7.04277 29.688 6.9511 29.6716L6.76777 29.6059C6.70666 29.5895 6.66083 29.5731 6.615 29.5567C6.4775 29.5074 6.35528 29.4582 6.21778 29.4089C6.08028 29.3596 5.95806 29.294 5.83584 29.2447C5.77473 29.2118 5.71362 29.179 5.65251 29.1462L5.46918 29.0476L5.28585 28.9491C5.22474 28.9163 5.16363 28.8834 5.10252 28.8506C5.04141 28.8178 4.9803 28.7849 4.91919 28.7357C4.85808 28.7028 4.81225 28.67 4.75113 28.6207L4.73586 28.6043C4.67475 28.5715 4.62891 28.5386 4.58308 28.4894L4.55253 28.4729C4.50669 28.4401 4.44558 28.4072 4.39975 28.358C4.35392 28.3251 4.27753 28.2759 4.2317 28.2266C4.17059 28.1774 4.10948 28.1445 4.06365 28.0953L3.91087 27.9639L3.89559 27.9475C3.84976 27.9146 3.80393 27.8654 3.75809 27.8325L3.72754 27.8161C6.52333 29.3104 7.9747 27.3399 8.69274 25.4844C8.99829 24.6798 9.21218 23.8259 9.3344 22.9557C9.45662 23.8259 9.67051 24.6634 9.97606 25.4844C10.6024 27.3235 12.0538 29.294 14.8496 27.7997Z" fill="#529BBA"/>
<path d="M11.29 29.7373C11.397 29.7044 11.5039 29.6716 11.5956 29.6552C11.5039 29.6716 11.397 29.7044 11.29 29.7373Z" fill="#335F8A"/>
<path d="M11.9316 29.5239C12.0691 29.4746 12.1914 29.4254 12.3289 29.3761C12.2066 29.4418 12.0691 29.491 11.9316 29.5239Z" fill="#335F8A"/>
<path d="M12.3291 29.3762C12.4513 29.327 12.5888 29.2613 12.711 29.212C12.5888 29.2613 12.4666 29.327 12.3291 29.3762Z" fill="#335F8A"/>
<path d="M18.4708 19.6387C18.4555 22.8078 17.1264 25.7963 14.85 27.7996C12.0542 29.2939 10.6029 27.3234 9.88482 25.4679C9.57927 24.6633 9.36538 23.8095 9.24316 22.9392L18.1958 17.2413C18.3791 18.0295 18.4708 18.8341 18.4708 19.6387Z" fill="#4B6B9A"/>
</svg>
